<svg width="17" height="17" viewBox="0 0 17 17" fill="none" xmlns="http://www.w3.org/2000/svg">
<path d="M8.5 0C3.80375 0 0 3.80375 0 8.5C0 13.1963 3.80375 17 8.5 17C13.1963 17 17 13.1963 17 8.5C17 3.80375 13.1963 0 8.5 0ZM8.5 2.125C9.20125 2.125 9.86 2.31625 10.4975 2.52875C10.0513 2.95375 9.54125 3.33625 9.62625 3.71875C9.71125 4.10125 11.0925 3.995 11.0925 4.78125C11.0925 5.355 10.2 5.525 10.8163 6.18375C11.56 6.9275 9.45625 8.26625 9.41375 9.24375C9.35 11.0075 11.1988 11.305 12.665 11.305C13.5575 11.305 13.7913 11.73 13.7275 12.24C12.58 13.8763 10.625 14.8963 8.47875 14.8963C7.67125 14.8963 6.9275 14.705 6.22625 14.4287C6.69375 13.4937 5.63125 11.645 4.6325 11.05C4.14375 10.5612 3.1025 10.7525 2.5075 10.5187C2.31625 9.945 2.125 9.37125 2.10375 8.73375C2.1675 8.6275 2.27375 8.5425 2.44375 8.5425C2.8475 8.5425 3.4 9.35 3.6975 9.265C4.08 9.18 2.125 6.48125 3.03875 5.95C3.46375 5.695 4.31375 6.77875 4.0375 5.61C3.7825 4.52625 4.8025 5.015 5.44 4.73875C5.9925 4.505 6.39625 3.8675 5.71625 3.485C5.58875 3.42125 5.44 3.2725 5.24875 3.08125C6.205 2.5075 7.31 2.14625 8.5 2.14625V2.125ZM13.4087 4.44125C13.7912 4.90875 14.0888 5.41875 14.3438 5.97125C14.3438 5.9925 14.3438 6.01375 14.3438 6.035C14.2588 6.18375 14.11 6.26875 13.8763 6.5025C13.2813 7.0975 13.1963 6.05625 12.9413 5.84375C12.665 5.58875 11.6662 5.88625 11.5387 5.5675C11.39 5.185 12.6012 4.675 13.4087 4.44125Z" fill="url(#paint0_linear)"/>
<defs>
<linearGradient id="paint0_linear" x1="15.4531" y1="-7.20665" x2="3.1335" y2="23.8455" gradientUnits="userSpaceOnUse">
<stop stop-color="#7F0799"/>
<stop offset="1" stop-color="#E63462"/>
</linearGradient>
</defs>
</svg>
