<svg width="15" height="15" viewBox="0 0 15 15" fill="none" xmlns="http://www.w3.org/2000/svg">
<path d="M7.5 0C3.35625 0 0 3.35625 0 7.5C0 11.6438 3.35625 15 7.5 15C11.6438 15 15 11.6438 15 7.5C15 3.35625 11.6438 0 7.5 0ZM7.5 1.875C8.11875 1.875 8.7 2.04375 9.2625 2.23125C8.86875 2.60625 8.41875 2.94375 8.49375 3.28125C8.56875 3.61875 9.7875 3.525 9.7875 4.21875C9.7875 4.725 9 4.875 9.54375 5.45625C10.2 6.1125 8.34375 7.29375 8.30625 8.15625C8.25 9.7125 9.88125 9.975 11.175 9.975C11.9625 9.975 12.1688 10.35 12.1125 10.8C11.1 12.2438 9.375 13.1438 7.48125 13.1438C6.76875 13.1438 6.1125 12.975 5.49375 12.7312C5.90625 11.9062 4.96875 10.275 4.0875 9.75C3.65625 9.31875 2.7375 9.4875 2.2125 9.28125C2.04375 8.775 1.875 8.26875 1.85625 7.70625C1.9125 7.6125 2.00625 7.5375 2.15625 7.5375C2.5125 7.5375 3 8.25 3.2625 8.175C3.6 8.1 1.875 5.71875 2.68125 5.25C3.05625 5.025 3.80625 5.98125 3.5625 4.95C3.3375 3.99375 4.2375 4.425 4.8 4.18125C5.2875 3.975 5.64375 3.4125 5.04375 3.075C4.93125 3.01875 4.8 2.8875 4.63125 2.71875C5.475 2.2125 6.45 1.89375 7.5 1.89375V1.875ZM11.8312 3.91875C12.1687 4.33125 12.4313 4.78125 12.6562 5.26875C12.6562 5.2875 12.6562 5.30625 12.6562 5.325C12.5813 5.45625 12.45 5.53125 12.2438 5.7375C11.7188 6.2625 11.6438 5.34375 11.4188 5.15625C11.175 4.93125 10.2937 5.19375 10.1812 4.9125C10.05 4.575 11.1187 4.125 11.8312 3.91875Z" fill="url(#paint0_linear)"/>
<defs>
<linearGradient id="paint0_linear" x1="13.6351" y1="-6.35881" x2="2.76486" y2="21.0402" gradientUnits="userSpaceOnUse">
<stop stop-color="#7F0799"/>
<stop offset="1" stop-color="#E63462"/>
</linearGradient>
</defs>
</svg>
